This is only a 720p Upscaled version as no proper bluray version has been released 

yet.

File details:

Format                           : Matroska
File size                        : 74.4 MiB
Duration                         : 23mn 29s
Overall bit rate                 : 443 Kbps

Video
ID                               : 1
Format                           : AVC
Format/Info                      : Advanced Video Codec
Format profile                   : High@L4.0
Format settings, CABAC           : Yes
Format settings, ReFrames        : 8 frames
Codec ID                         : V_MPEG4/ISO/AVC
Duration                         : 23mn 29s
Bit rate                         : 386 Kbps
Width                            : 960 pixels
Height                           : 720 pixels
Display aspect ratio             : 4:3
Frame rate mode                  : Variable
Frame rate                       : 29.970 fps
Color space                      : YUV
Chroma subsampling               : 4:2:0
Bit depth                        : 8 bits
Scan type                        : Progressive
Bits/(Pixel*Frame)               : 0.019
Stream size                      : 64.9 MiB (87%)

Audio
ID                               : 2
Format                           : Vorbis
Format settings, Floor           : 1
Codec ID                         : A_VORBIS
Duration                         : 23mn 29s
Bit rate                         : 48.0 Kbps
Channel(s)                       : 1 channel
Sampling rate                    : 48.0 KHz
Compression mode                 : Lossy
Stream size                      : 8.06 MiB (11%)
Writing library                  : aoTuV 20110424 (UTC 2011-04-24)

Books 2 & 3 or seasons 2 & 3 will be uploaded soon.


Visit http://www.minirlss.net - The No. 1 source for minimkvs for tv series in both 

720p and 480p quality for latest updates and more....

Screenshots added.

Enjoy and pls seed back	
